<?xml version="1.0" encoding="utf-8"?>
<!-- Generator: Adobe Illustrator 16.0.0, SVG Export Plug-In . SVG Version: 6.00 Build 0)  -->
<!DOCTYPE svg PUBLIC "-//W3C//DTD SVG 1.1//EN" "http://www.w3.org/Graphics/SVG/1.1/DTD/svg11.dtd">
<svg version="1.1" id="Layer_1" xmlns="http://www.w3.org/2000/svg" xmlns:xlink="http://www.w3.org/1999/xlink" x="0px" y="0px"
	 width="173.268px" height="27.204px" viewBox="0 0 173.268 27.204" enable-background="new 0 0 173.268 27.204"
	 xml:space="preserve">
<g id="lg_BI_tv" transform="translate(-3.944 33.335)">
	<g id="그룹_170">
		<g id="그룹_165">
			<path id="패스_351" fill="#231815" d="M133.354-12.747h-27v3.375h25.327L133.354-12.747z"/>
			<path id="패스_352" fill="#231815" d="M127.845-17.176l1.622-3.275h-14.625c-0.544,0-0.714-0.171-0.714-0.715v-6.989h14.559
				v-3.274h-18.343v10.671c0,2.761,0.719,3.582,3.683,3.582H127.845z"/>
		</g>
		<g id="그룹_166">
			<rect id="사각형_13" x="100.863" y="-32.962" fill="#231815" width="3.646" height="26.456"/>
			<path id="패스_353" fill="#231815" d="M95.168-32.962v9.273h-3.409v3.341h3.409v13.362h3.647v-25.976H95.168z"/>
			<path id="패스_354" fill="#231815" d="M84.105-15.711v-4.532h6.354v-8.906c-0.001-0.905-0.734-1.637-1.639-1.638h-8.241v3.1H87
				v4.434h-6.356v10.674h11.369l1.554-3.137L84.105-15.711z"/>
		</g>
		<g id="그룹_169">
			<g id="그룹_167">
				<path id="패스_355" fill="#231815" d="M59.165-9.441v-1.06H74.4v-7.092H55.519v2.9h15.1v1.432H55.38v5.489
					c-0.084,0.824,0.516,1.561,1.34,1.646c0.12,0.012,0.241,0.01,0.36-0.008h17.291l1.43-2.9H59.54
					C59.268-9.034,59.165-9.133,59.165-9.441"/>
				<path id="패스_356" fill="#231815" d="M66.868-21.848v-1.326c4.4-0.41,6.817-2.216,6.817-5.048
					c0-3.271-3.24-5.113-8.726-5.113s-8.729,1.842-8.729,5.113c0,2.832,2.421,4.641,6.818,5.048v1.326H51.664v2.934h25.55
					l1.45-2.934H66.868z M60.118-28.223c0-1.4,1.771-2.147,4.842-2.147s4.837,0.748,4.837,2.147c0,1.467-1.94,2.149-4.837,2.149
					c-2.896,0-4.839-0.683-4.839-2.15L60.118-28.223z"/>
			</g>
			<g id="그룹_168">
				<path id="패스_357" fill="#231815" d="M9.047-30.786h-5.1V-8.7h15.671v-4.301H9.047V-30.786z"/>
				<path id="패스_358" fill="#231815" d="M30.838-17.115h4.155v3.86c-1.189,0.387-2.432,0.582-3.682,0.58
					c-4.585,0-6.123-2.332-6.123-7.068c0-4.516,1.459-7.182,6.057-7.182c2.02-0.167,3.983,0.709,5.208,2.324l3.166-2.909
					c-1.928-2.77-5.315-3.609-8.487-3.609c-7.145,0-10.899,3.9-10.899,11.335c0,7.4,3.392,11.406,10.86,11.406
					c3.421,0,6.777-0.875,8.601-2.15v-10.71h-8.855V-17.115z"/>
			</g>
		</g>
	</g>
	<g id="그룹_171">
		<path id="패스_359" fill="#231815" d="M149.839-8.693h-4.247c-0.89,0.021-1.772-0.156-2.586-0.517
			c-0.706-0.324-1.331-0.799-1.832-1.393c-0.495-0.602-0.865-1.297-1.087-2.045c-0.243-0.809-0.364-1.648-0.356-2.493
			c-0.007-0.849,0.113-1.692,0.356-2.506c0.221-0.754,0.596-1.454,1.101-2.056c0.516-0.599,1.159-1.075,1.883-1.393
			c0.855-0.364,1.778-0.541,2.708-0.517c0.959-0.03,1.914,0.146,2.8,0.517c0.709,0.311,1.332,0.789,1.816,1.393
			c0.471,0.608,0.807,1.309,0.983,2.056c0.197,0.821,0.294,1.662,0.29,2.506v1.354h-9.31c0.082,0.841,0.469,1.623,1.087,2.199
			c0.638,0.532,1.451,0.807,2.281,0.77h5.174L149.839-8.693z M145.778-19.437c-0.952-0.07-1.888,0.279-2.561,0.956
			c-0.607,0.721-0.941,1.631-0.943,2.572h6.873c-0.002-0.93-0.311-1.834-0.877-2.572C147.629-19.165,146.711-19.516,145.778-19.437z
			"/>
		<path id="패스_360" fill="#231815" d="M159.995-8.693h-3.446l-4.67-12.573h2.548l3.818,10.611l3.845-10.611h2.573L159.995-8.693
			z"/>
		<path id="패스_361" fill="#231815" d="M170.927-8.4c-0.906,0.015-1.807-0.147-2.651-0.478c-0.752-0.299-1.427-0.761-1.978-1.354
			c-0.554-0.606-0.975-1.322-1.236-2.1c-0.292-0.873-0.435-1.787-0.424-2.707c-0.012-0.928,0.132-1.852,0.424-2.732
			c0.261-0.773,0.682-1.483,1.236-2.082c0.554-0.585,1.229-1.043,1.978-1.34c1.709-0.635,3.59-0.635,5.3,0
			c0.748,0.298,1.422,0.755,1.975,1.34c0.554,0.6,0.976,1.309,1.236,2.082c0.563,1.778,0.563,3.688,0,5.465
			c-0.261,0.773-0.683,1.482-1.236,2.082c-0.554,0.584-1.228,1.041-1.975,1.34C172.732-8.551,171.833-8.387,170.927-8.4z
			 M170.927-19.516c-1.083-0.067-2.136,0.381-2.839,1.208c-1.305,1.97-1.305,4.53,0,6.5c0.695,0.842,1.75,1.3,2.839,1.233
			c0.568,0.012,1.132-0.111,1.645-0.357c0.466-0.229,0.874-0.561,1.193-0.969c0.33-0.424,0.577-0.906,0.729-1.421
			c0.172-0.554,0.257-1.13,0.252-1.709c0.064-1.173-0.282-2.331-0.98-3.276C173.061-19.133,172.011-19.581,170.927-19.516
			L170.927-19.516z"/>
	</g>
</g>
</svg>
