<?xml version="1.0" encoding="utf-8"?>
<!-- Generator: Adobe Illustrator 16.0.0, SVG Export Plug-In . SVG Version: 6.00 Build 0)  -->
<!DOCTYPE svg PUBLIC "-//W3C//DTD SVG 1.1//EN" "http://www.w3.org/Graphics/SVG/1.1/DTD/svg11.dtd">
<svg version="1.1" id="Layer_1" xmlns="http://www.w3.org/2000/svg" xmlns:xlink="http://www.w3.org/1999/xlink" x="0px" y="0px"
	 width="304.004px" height="26.225px" viewBox="0 0 304.004 26.225" enable-background="new 0 0 304.004 26.225"
	 xml:space="preserve">
<g id="그룹_1" transform="translate(-155 -383.244)">
	<path id="패스_1" fill="#231815" d="M181.812,397.193h4.14v3.848c-1.185,0.389-2.423,0.586-3.67,0.586
		c-4.569,0-6.1-2.332-6.1-7.059c0-4.5,1.45-7.146,6.027-7.146c2.018-0.171,3.982,0.707,5.2,2.326l3.158-2.899
		c-1.922-2.761-5.294-3.601-8.46-3.601c-7.131,0-10.865,3.886-10.865,11.3c0,7.364,3.381,11.365,10.829,11.365
		c3.407,0,6.749-0.873,8.563-2.143v-10.687h-8.819L181.812,397.193z"/>
	<path id="패스_2" fill="#231815" d="M160.093,383.569H155v22.012h15.621v-4.28h-10.528V383.569z"/>
	<path id="패스_3" fill="#231815" d="M265.2,394.555c0-4.611,3.146-7.789,7.579-7.789h5.451l1.629-3.2h-7.38
		c-6.072,0.058-10.947,5.026-10.891,11.099c0.058,5.991,4.9,10.834,10.891,10.891h5.751l1.629-3.179l-7.07-0.015
		c-4.188,0.006-7.587-3.383-7.593-7.569c0-0.08,0.001-0.16,0.004-0.24"/>
	<path id="패스_4" fill="#231815" d="M294.556,402.65h-7c-1.136,0.084-2.125-0.769-2.209-1.904
		c-0.005-0.067-0.007-0.135-0.005-0.203c-0.018-1.122,0.878-2.046,2-2.063c0.093-0.001,0.186,0.004,0.278,0.015h6.934
		L294.556,402.65z M291.449,388.832h-6.378l-1.5,2.941h7.708c2.072,0,3.276,1.2,3.276,2.98v0.839h-7.022
		c-3.616,0-5.491,2.342-5.491,5c0,2.657,1.885,4.992,5.491,4.992h10.309v-10.611C297.842,391.395,295.53,388.832,291.449,388.832"/>
	<path id="패스_5" fill="#231815" d="M311.356,388.855h-4.484c-3.154-0.142-5.825,2.301-5.967,5.454
		c-0.008,0.19-0.007,0.381,0.004,0.57v10.7h3.3v-10.816c-0.121-1.525,1.018-2.859,2.543-2.98c0.104-0.008,0.207-0.011,0.311-0.007
		h2.8L311.356,388.855z"/>
	<path id="패스_6" fill="#231815" d="M319.588,391.744c3.013,0,4.549,1.531,4.899,4.268H314.5
		C314.906,393.219,316.627,391.744,319.588,391.744 M326.4,402.65h-6.958c-2.316,0.168-4.39-1.43-4.818-3.712h13.218v-1.512
		c0-4.7-2.101-8.638-8.238-8.638c-5.823,0-8.5,3.774-8.5,8.386c0,4.68,2.705,8.406,8.17,8.406h5.738L326.4,402.65z"/>
	<rect id="사각형_1" x="254.314" y="383.569" fill="#231815" width="3.288" height="2.918"/>
	<rect id="사각형_2" x="254.314" y="388.818" fill="#231815" width="3.288" height="16.763"/>
	<path id="패스_7" fill="#231815" d="M229.711,405.581h9.148v-16.726h-3.3v13.795h-5.674c-1.529,0.048-2.808-1.152-2.855-2.682
		c-0.004-0.107-0.001-0.216,0.009-0.323v-10.79h-3.29v10.7c-0.175,3.152,2.24,5.851,5.394,6.024
		c0.188,0.011,0.377,0.012,0.565,0.003"/>
	<path id="패스_8" fill="#231815" d="M252.337,388.855h-4.486c-3.149-0.14-5.816,2.3-5.956,5.45
		c-0.009,0.191-0.008,0.383,0.003,0.574v10.7h3.301v-10.816c-0.128-1.519,0.999-2.852,2.518-2.979
		c0.107-0.009,0.217-0.012,0.325-0.008h2.805L252.337,388.855z"/>
	<path id="패스_9" fill="#231815" d="M214.014,394.406h-6.686v-7.654h6.686c2.624,0,3.921,1.476,3.921,3.829
		C217.935,392.935,216.685,394.406,214.014,394.406 M214.172,383.569h-10.321v22.012h3.478v-8.034h6.758
		c5.043,0,7.353-2.806,7.353-6.983C221.439,386.189,218.93,383.569,214.172,383.569"/>
	<path id="패스_10" fill="#231815" d="M404.225,400.93c-0.007,0.477,0.061,0.952,0.2,1.408c0.119,0.401,0.324,0.771,0.6,1.084
		c0.279,0.31,0.626,0.55,1.015,0.7c0.452,0.172,0.934,0.256,1.418,0.248h2.444l-0.623,1.225h-2.165
		c-0.582,0.002-1.158-0.104-1.7-0.313c-0.521-0.2-0.994-0.51-1.388-0.907c-0.408-0.417-0.726-0.915-0.933-1.461
		c-0.453-1.266-0.457-2.649-0.011-3.918c0.203-0.546,0.514-1.046,0.913-1.47c0.391-0.402,0.862-0.717,1.383-0.925
		c0.551-0.221,1.14-0.332,1.732-0.327h2.789l-0.623,1.219h-1.821c-0.479-0.008-0.955,0.079-1.4,0.256
		c-0.386,0.154-0.73,0.394-1.01,0.7c-0.282,0.314-0.495,0.686-0.624,1.088c-0.141,0.451-0.21,0.921-0.206,1.394"/>
	<path id="패스_11" fill="#231815" d="M413.813,399.752c-0.589-0.037-1.161,0.209-1.54,0.661c-0.377,0.51-0.564,1.135-0.528,1.768
		c-0.029,0.626,0.157,1.244,0.528,1.75c0.378,0.455,0.949,0.704,1.54,0.67c0.307,0.003,0.61-0.065,0.886-0.2
		c0.253-0.123,0.475-0.301,0.649-0.521c0.18-0.229,0.315-0.488,0.4-0.767c0.092-0.302,0.139-0.615,0.137-0.931
		c0.036-0.634-0.153-1.261-0.536-1.768C414.972,399.962,414.402,399.715,413.813,399.752 M413.814,405.773
		c-0.491,0.011-0.979-0.074-1.438-0.25c-0.408-0.164-0.773-0.419-1.068-0.745c-0.303-0.322-0.532-0.706-0.672-1.126
		c-0.307-0.959-0.307-1.99,0-2.95c0.139-0.42,0.368-0.805,0.672-1.127c0.298-0.319,0.662-0.568,1.068-0.729
		c0.928-0.347,1.949-0.347,2.877,0c0.405,0.162,0.771,0.411,1.069,0.729c0.302,0.323,0.529,0.708,0.667,1.127
		c0.307,0.962,0.307,1.996,0,2.958c-0.14,0.42-0.367,0.806-0.667,1.131c-0.3,0.317-0.665,0.567-1.069,0.732
		C414.794,405.698,414.305,405.783,413.814,405.773"/>
	<path id="패스_12" fill="#231815" d="M419.866,405.592c-1.073,0-1.614-0.555-1.614-1.678v-7.644h1.313v7.644
		c-0.008,0.139,0.027,0.275,0.101,0.394c0.088,0.094,0.215,0.142,0.344,0.128h0.808l-0.588,1.156H419.866z"/>
	<path id="패스_13" fill="#231815" d="M423.384,405.592c-1.072,0-1.609-0.555-1.609-1.678v-7.644h1.311v7.644
		c-0.009,0.139,0.026,0.275,0.1,0.394c0.088,0.095,0.216,0.143,0.344,0.128h0.801l-0.585,1.156H423.384z"/>
	<path id="패스_14" fill="#231815" d="M427.9,399.766c-0.515-0.04-1.021,0.147-1.385,0.515c-0.329,0.393-0.511,0.888-0.514,1.4
		h3.727c-0.003-0.506-0.17-0.997-0.475-1.4C428.905,399.911,428.406,399.721,427.9,399.766 M430.1,405.592h-2.3
		c-0.481,0.005-0.958-0.091-1.4-0.281c-0.382-0.175-0.72-0.434-0.987-0.757c-0.271-0.326-0.476-0.703-0.601-1.108
		c-0.13-0.439-0.195-0.896-0.193-1.354c-0.001-0.46,0.064-0.918,0.193-1.359c0.125-0.407,0.329-0.785,0.601-1.112
		c0.279-0.324,0.629-0.582,1.021-0.754c0.463-0.197,0.962-0.294,1.465-0.283c0.521-0.014,1.039,0.082,1.52,0.283
		c0.383,0.17,0.72,0.429,0.983,0.754c0.253,0.33,0.435,0.709,0.533,1.112c0.104,0.445,0.156,0.901,0.157,1.359v0.733h-5.043
		c0.04,0.459,0.248,0.886,0.585,1.2c0.346,0.289,0.788,0.437,1.238,0.414h2.8L430.1,405.592z"/>
	<path id="패스_15" fill="#231815" d="M436.8,405.592h-1.6c-0.451,0.003-0.897-0.076-1.319-0.234
		c-0.396-0.146-0.757-0.375-1.055-0.674c-0.297-0.312-0.53-0.677-0.688-1.076c-0.174-0.456-0.26-0.94-0.253-1.428
		c-0.007-0.487,0.082-0.972,0.262-1.425c0.162-0.402,0.403-0.768,0.71-1.073c0.301-0.298,0.661-0.528,1.058-0.676
		c0.41-0.157,0.846-0.237,1.286-0.236h2.192l-0.592,1.152H435.3c-0.293-0.003-0.584,0.053-0.856,0.163
		c-0.248,0.11-0.471,0.271-0.653,0.472c-0.188,0.209-0.332,0.454-0.424,0.721c-0.103,0.289-0.153,0.594-0.15,0.9
		c-0.026,0.59,0.168,1.169,0.545,1.624c0.39,0.434,0.956,0.667,1.539,0.632h2.085L436.8,405.592z"/>
	<path id="패스_16" fill="#231815" d="M441.7,405.592h-1.324c-0.6,0.034-1.186-0.183-1.617-0.601
		c-0.412-0.453-0.621-1.055-0.581-1.666v-6.6h1.31v2.044h2.757l-0.573,1.153h-2.184v3.453c0,0.698,0.321,1.047,0.964,1.047h1.837
		L441.7,405.592z"/>
	<path id="패스_17" fill="#231815" d="M444.543,405.592h-1.312v-6.822h1.312V405.592z M444.543,397.449h-1.312v-1.177h1.312
		V397.449z"/>
	<path id="패스_18" fill="#231815" d="M448.726,399.752c-0.587-0.037-1.157,0.209-1.534,0.661
		c-0.381,0.508-0.569,1.134-0.53,1.768c-0.032,0.627,0.155,1.246,0.53,1.75c0.376,0.455,0.945,0.704,1.534,0.67
		c0.309,0.002,0.614-0.066,0.893-0.2c0.251-0.125,0.472-0.303,0.648-0.521c0.174-0.231,0.307-0.49,0.393-0.767
		c0.091-0.302,0.136-0.615,0.136-0.931c0.035-0.633-0.151-1.258-0.528-1.768C449.887,399.963,449.316,399.717,448.726,399.752
		 M448.726,405.773c-0.491,0.011-0.979-0.074-1.438-0.25c-0.408-0.166-0.773-0.42-1.07-0.745c-0.3-0.323-0.527-0.707-0.666-1.126
		c-0.311-0.959-0.311-1.991,0-2.95c0.139-0.419,0.365-0.804,0.666-1.127c0.299-0.318,0.664-0.567,1.07-0.729
		c0.927-0.348,1.947-0.348,2.875,0c0.405,0.162,0.771,0.411,1.07,0.729c0.303,0.322,0.532,0.707,0.671,1.127
		c0.303,0.963,0.303,1.995,0,2.958c-0.141,0.42-0.37,0.806-0.671,1.131c-0.301,0.317-0.666,0.567-1.07,0.732
		C449.704,405.699,449.217,405.784,448.726,405.773"/>
	<path id="패스_19" fill="#231815" d="M456.705,398.77c1.203-0.07,2.234,0.848,2.305,2.051c0.006,0.103,0.004,0.205-0.004,0.308
		v4.464h-1.307v-4.506c0.019-0.321-0.097-0.636-0.317-0.869c-0.211-0.174-0.472-0.272-0.744-0.283h-2.173v5.658h-1.291v-6.822
		H456.705z"/>
	<path id="패스_20" fill="#231815" d="M353.451,403.855c0.723,0.008,1.441-0.128,2.111-0.4c0.628-0.26,1.19-0.653,1.649-1.153
		c0.482-0.536,0.848-1.168,1.072-1.854c0.263-0.81,0.39-1.657,0.376-2.508c0.014-0.861-0.113-1.72-0.376-2.54
		c-0.22-0.688-0.581-1.321-1.062-1.86c-0.454-0.505-1.019-0.898-1.65-1.149c-1.37-0.519-2.884-0.515-4.252,0.01
		c-0.625,0.258-1.185,0.654-1.637,1.158c-0.479,0.54-0.841,1.174-1.063,1.86c-0.498,1.646-0.498,3.4,0,5.046
		c0.224,0.689,0.59,1.324,1.073,1.864c0.458,0.497,1.021,0.887,1.647,1.14C352.014,403.729,352.73,403.86,353.451,403.855
		 M361.069,397.94c0.014,1.098-0.159,2.19-0.509,3.23c-0.314,0.936-0.821,1.794-1.488,2.521c-0.666,0.717-1.482,1.276-2.392,1.639
		c-1.029,0.397-2.126,0.592-3.229,0.572c-1.111,0.021-2.215-0.174-3.253-0.572c-0.903-0.361-1.718-0.917-2.383-1.629
		c-0.654-0.725-1.153-1.575-1.467-2.5c-0.68-2.121-0.68-4.401,0-6.522c0.311-0.936,0.81-1.797,1.467-2.531
		c0.662-0.717,1.477-1.275,2.383-1.633c2.1-0.783,4.41-0.783,6.509,0c0.905,0.357,1.717,0.915,2.375,1.633
		c0.662,0.732,1.165,1.594,1.478,2.531c0.351,1.052,0.522,2.155,0.509,3.265"/>
	<path id="패스_21" fill="#231815" d="M365.4,403.669h1.957c0.479,0.007,0.955-0.093,1.392-0.293
		c0.402-0.191,0.76-0.466,1.05-0.806c0.3-0.347,0.525-0.752,0.66-1.19c0.152-0.462,0.229-0.946,0.227-1.434
		c0.005-0.484-0.068-0.966-0.215-1.427c-0.13-0.431-0.346-0.831-0.633-1.177c-0.63-0.704-1.536-1.097-2.48-1.075H365.4V403.669z
		 M365.4,390.283v4.101h2.122c0.734-0.007,1.463,0.125,2.148,0.387c0.641,0.244,1.221,0.625,1.7,1.116
		c0.485,0.504,0.862,1.101,1.109,1.756c0.54,1.506,0.535,3.152-0.014,4.654c-0.251,0.657-0.636,1.254-1.128,1.756
		c-0.484,0.482-1.063,0.859-1.7,1.106c-0.673,0.268-1.391,0.403-2.115,0.4h-4.287v-15.276H365.4z"/>
	<path id="패스_22" fill="#231815" d="M375.442,394.387v11.5c0.024,0.435-0.089,0.866-0.325,1.232
		c-0.238,0.316-0.62,0.489-1.015,0.46h-0.848l-0.97,1.891h2.033c0.446,0.003,0.888-0.083,1.301-0.252
		c0.392-0.161,0.745-0.401,1.038-0.707c0.3-0.324,0.532-0.704,0.684-1.117c0.171-0.484,0.253-0.994,0.244-1.507v-11.5H375.442z"/>
	<path id="패스_23" fill="#231815" d="M385.046,396.006c-0.847-0.063-1.679,0.248-2.276,0.852
		c-0.539,0.641-0.836,1.451-0.838,2.289h6.1c-0.001-0.827-0.273-1.632-0.775-2.289c-0.567-0.609-1.384-0.923-2.213-0.852
		 M388.643,405.554h-3.763c-0.791,0.018-1.577-0.14-2.3-0.461c-0.625-0.286-1.178-0.709-1.617-1.237
		c-0.447-0.53-0.779-1.146-0.977-1.812c-0.421-1.45-0.421-2.991,0-4.441c0.196-0.674,0.532-1.299,0.984-1.834
		c0.456-0.533,1.028-0.954,1.674-1.229c0.758-0.324,1.576-0.481,2.4-0.459c0.853-0.028,1.701,0.129,2.488,0.459
		c0.628,0.273,1.181,0.695,1.609,1.229c0.418,0.543,0.717,1.168,0.876,1.834c0.175,0.728,0.261,1.475,0.257,2.223v1.205H382
		c0.072,0.747,0.416,1.442,0.966,1.954c0.566,0.476,1.291,0.721,2.03,0.684h4.6L388.643,405.554z"/>
	<path id="패스_24" fill="#231815" d="M397.878,405.554h-2.171c-0.976,0.054-1.932-0.292-2.646-0.958
		c-0.674-0.747-1.02-1.733-0.96-2.737v-10.845h2.147v3.373h4.523l-0.939,1.88h-3.584v5.651c0,1.149,0.525,1.724,1.577,1.724h3.021
		L397.878,405.554z"/>
	<path id="패스_25" fill="#231815" d="M380,390.3h-2.124l-2.432,2.959h2.12L380,390.3z"/>
	<rect id="사각형_3" x="336.482" y="389.86" fill="#231815" width="0.966" height="16.038"/>
</g>
</svg>
