<svg width="64" height="64" viewBox="0 0 64 64" xmlns="http://www.w3.org/2000/svg">
    <g transform="translate(4 10)" stroke="#000" stroke-width="2.217" fill="none" fill-rule="evenodd">
        <path d="M49.112 27.75c.498-1.834.764-3.761.764-5.75 0-12.15-9.924-22-22.167-22C15.466 0 5.542 9.85 5.542 22s9.924 22 22.167 22a22.25 22.25 0 0 0 8.297-1.593" fill="#FFF" stroke-linecap="round"/>
        <path d="m3.922 26.466 1.81.03h0a43.589 43.589 0 0 1 0-6.632C5.9 17.66 6.4 15.439 7.232 13.2H3.99C1.787 13.2 0 14.973 0 17.16v5.346c0 2.162 1.746 3.924 3.922 3.96zM52.073 26.46l-2.497.037h0c.368-2.229.468-4.444.3-6.649-.168-2.203-.78-4.42-1.834-6.648h3.968c2.204 0 3.99 1.773 3.99 3.96v5.34c0 2.163-1.749 3.926-3.93 3.96h.003z" fill="#FF8B00" stroke-linecap="round"/>
        <path d="M40.455 34.097c8.128.13 12.192-3.536 12.192-10.997" stroke-linecap="round"/>
        <rect fill="#FF8B00" fill-rule="nonzero" x="31.034" y="31.9" width="9.975" height="5.5" rx="2.75"/>
        <path d="M19.95 22.017c.942 3.174 3.81 5.483 7.203 5.483 3.398 0 6.27-2.318 7.206-5.5" stroke-linecap="round"/>
    </g>
</svg>
