<svg width="160" height="136" viewBox="0 0 160 136" xmlns="http://www.w3.org/2000/svg" xmlns:xlink="http://www.w3.org/1999/xlink">
    <defs>
        <path id="btbi0i1p6a" d="M0 0h1.325v39.842H0z"/>
    </defs>
    <g fill="none" fill-rule="evenodd">
        <path fill="#F0F0F0" d="M3.8 136h152.4V76.623H3.8z"/>
        <path fill="#8E2770" d="M156.4 76.584H4V54h152.4z"/>
        <path d="M147.269 136H12.731V99.846a3.685 3.685 0 0 1 3.681-3.689h127.175a3.686 3.686 0 0 1 3.682 3.69V136z" fill="#C8E1F0"/>
        <path d="M157.279 48.549H2.721A2.724 2.724 0 0 0 0 51.275 2.724 2.724 0 0 0 2.721 54h154.558A2.724 2.724 0 0 0 160 51.275a2.724 2.724 0 0 0-2.721-2.726" fill="#82146E"/>
        <path fill="#F0F0F0" d="M32.145 95.28h1.657v40.708h-1.657z"/>
        <path fill="#E6E6E6" d="M64.558 88.031h1.657v47.957h-1.657zM93.785 88.031h1.657v47.957h-1.657z"/>
        <g fill="#FFF">
            <path d="M61.53 64.623c.445-.166.78-.438 1.002-.823.277-.331.386-.772.386-1.215 0-.436-.054-.823-.22-1.153a1.521 1.521 0 0 0-.612-.715c-.276-.22-.61-.33-1.055-.44a9.73 9.73 0 0 0-1.334-.107H55.81v9.623h4.11c.445 0 .89-.054 1.276-.163.39-.113.78-.276 1.058-.495.278-.276.555-.55.72-.934.17-.332.223-.772.223-1.269 0-.604-.11-1.102-.444-1.429a3.334 3.334 0 0 0-1.223-.88zm-3.83-2.97h1.887c.168 0 .333 0 .5.052.166.057.332.111.444.168.11.108.223.22.279.384.109.166.109.387.109.604 0 .387-.11.715-.332.88-.278.222-.555.332-1 .332h-1.888v-2.42zm3.33 5.94c-.054.167-.166.33-.334.384a.693.693 0 0 1-.498.224c-.166.052-.389.052-.555.052h-1.944v-2.75h1.944c.22 0 .389 0 .61.054.166.056.334.11.443.22.168.112.28.277.335.44.11.166.11.44.11.715 0 .278 0 .497-.11.662zM66.48 68.253h4.386v1.54h-6.33v-9.624H70.7v1.536h-4.22v2.366h4.054v1.486h-4.054zM78.536 65.503a2.25 2.25 0 0 0-.557-.496c-.221-.106-.444-.274-.666-.384-.442-.166-.833-.331-1.276-.493-.445-.168-.834-.279-1.167-.444l-.277-.163-.333-.22c-.166-.163-.278-.386-.278-.716 0-.331.112-.55.389-.77.278-.164.72-.275 1.331-.275.503 0 .945.055 1.39.163.443.111.832.275 1.167.444l.664-1.432c-.22-.11-.498-.22-.722-.33-.277-.055-.554-.165-.832-.217a4.048 4.048 0 0 0-.832-.113C76.258 60 75.983 60 75.702 60c-1.22 0-2.11.276-2.72.771-.665.44-.944 1.155-.944 1.98 0 .39 0 .662.11.935.057.276.169.498.335.661.167.22.332.386.556.554.277.162.5.273.83.438.447.164.835.328 1.28.439.443.165.834.331 1.221.493l.221.113.224.22.223.276c.054.108.054.217.054.385 0 .327-.112.548-.39.77-.278.218-.777.33-1.441.33-.501 0-.945-.058-1.391-.165a7.527 7.527 0 0 1-1.276-.498l-.722 1.433c.555.275 1.11.495 1.72.603a8.492 8.492 0 0 0 1.669.168c.61 0 1.109-.057 1.61-.168.442-.108.833-.328 1.165-.549.333-.22.556-.552.722-.882.165-.33.277-.715.277-1.153 0-.385-.056-.713-.164-.937-.058-.274-.225-.493-.335-.714M79.876 61.705h2.886v8.088h1.945v-8.088h2.832V60.17h-7.663zM96.658 65.503c-.108-.22-.332-.383-.553-.496-.17-.106-.391-.274-.668-.384a22.952 22.952 0 0 0-1.223-.493c-.445-.168-.834-.279-1.165-.444l-.277-.163a1.17 1.17 0 0 1-.335-.22c-.22-.163-.277-.386-.277-.716 0-.331.11-.55.39-.77.278-.164.721-.275 1.331-.275.5 0 .945.055 1.391.163a5.5 5.5 0 0 1 1.164.444l.611-1.432c-.222-.11-.445-.22-.721-.33-.221-.055-.5-.165-.778-.217a4.58 4.58 0 0 0-.889-.113c-.278-.057-.5-.057-.778-.057-1.22 0-2.11.276-2.777.771-.61.44-.943 1.155-.943 1.98 0 .39.056.662.166.935.056.276.167.498.333.661.168.22.335.386.557.554.221.162.498.273.834.438.386.164.831.328 1.275.439.39.165.834.331 1.221.493l.223.113.222.22.223.276c.057.108.057.217.057.385 0 .327-.113.548-.446.77-.279.218-.72.33-1.446.33-.443 0-.887-.058-1.329-.165a7.376 7.376 0 0 1-1.279-.498l-.723 1.433c.557.275 1.11.495 1.722.603a8.485 8.485 0 0 0 1.665.168c.612 0 1.111-.057 1.556-.168.501-.108.887-.328 1.225-.549.277-.22.552-.552.718-.882.167-.33.279-.715.279-1.153 0-.385-.056-.713-.167-.937a3.003 3.003 0 0 0-.389-.714M104.662 64.184h-3.998V60.17h-1.942l-.001 9.623h1.943v-4.07h3.998v4.07h1.943V60.17h-1.943zM115.609 61.378c-.335-.442-.778-.772-1.334-1.048-.553-.217-1.221-.33-1.999-.33h-.165c-1.5.057-2.555.44-3.278 1.21-.775.826-1.11 2.038-1.11 3.689 0 .768.055 1.484.223 2.087.112.606.333 1.158.664 1.597.335.44.778.77 1.334.988.557.222 1.223.333 1.997.333h.17c1.498 0 2.553-.44 3.33-1.21.722-.826 1.112-2.036 1.112-3.689 0-.769-.056-1.483-.22-2.088-.17-.606-.393-1.155-.724-1.539m-1.223 5.005c-.056.44-.221.825-.386 1.1-.224.33-.504.551-.836.716-.276.108-.665.22-1.053.22h-.224c-.387 0-.778-.055-1.055-.275a1.668 1.668 0 0 1-.666-.717c-.166-.273-.275-.66-.389-1.044a9.256 9.256 0 0 1-.109-1.32c0-.553.055-1.046.165-1.54.058-.44.223-.827.444-1.101.168-.33.445-.55.778-.719.278-.106.667-.217 1.056-.217h.165c.443 0 .83.054 1.113.276.277.165.499.387.666.717.164.273.275.66.387 1.043.056.44.056.88.056 1.32 0 .552 0 1.1-.112 1.541M124.11 60.882c-.554-.496-1.442-.713-2.553-.713h-3.612v9.623h1.944V66.27h1.889c.445 0 .89-.053 1.277-.162a4.31 4.31 0 0 0 1.055-.66 3.07 3.07 0 0 0 .666-.992c.168-.384.224-.825.224-1.317 0-.991-.279-1.76-.89-2.257m-1.276 3.026c-.054.22-.166.383-.333.548-.112.109-.278.22-.5.275-.167.058-.334.058-.556.058h-1.556v-3.137h1.556c.166 0 .333.052.557.109.165.054.334.111.5.219.108.112.22.276.332.442.11.22.165.438.165.717 0 .273-.054.547-.165.77M35 69.856v-9.694h2.26v7.806h4.684v1.888zM46.918 66.16h1.84v1.696c-.339.128-1 .256-1.632.256-2.032 0-2.712-1.025-2.712-3.105 0-1.982.648-3.15 2.68-3.15 1.132 0 1.777.35 2.312 1.023l1.405-1.28c-.857-1.216-2.36-1.583-3.764-1.583-3.165 0-4.828 1.711-4.828 4.975 0 3.248 1.501 5.008 4.81 5.008 1.521 0 3.005-.384 3.811-.945v-4.703h-3.922"/>
        </g>
        <path d="M108.626 135.97H51.374V92.327c0-4.075 3.297-7.378 7.364-7.378h42.524c4.067 0 7.364 3.303 7.364 7.378v43.643z" fill="#8E2770"/>
        <path d="M99.812 135.97H60.188V99.846a3.685 3.685 0 0 1 3.682-3.688h32.26a3.685 3.685 0 0 1 3.682 3.688v36.124z" fill="#F0F0F0"/>
        <g transform="translate(79.337 96.158)">
            <mask id="gep388a5fb" fill="#fff">
                <use xlink:href="#btbi0i1p6a"/>
            </mask>
            <path fill="#8E2770" mask="url(#gep388a5fb)" d="M0 0h1.325v39.843H0z"/>
        </g>
        <path fill="#505050" d="M76.415 108.76h1.325v3.399h-1.325zM82.26 108.76h1.325v3.399H82.26z"/>
        <path fill="#F0F0F0" d="M126.198 95.28h1.658v40.708h-1.658z"/>
        <path d="M80.728 38.107a1.585 1.585 0 0 0 2.643 0L93.896 22.26a14.267 14.267 0 0 0 2.368-9.251C95.654 6.041 89.936.466 82.969.029 74.673-.493 67.78 6.095 67.78 14.296c0 2.95.895 5.69 2.424 7.964l10.524 15.847z" fill="#8E2770"/>
        <path d="M89.205 14.296c0 3.959-3.203 7.168-7.155 7.168-3.953 0-7.155-3.21-7.155-7.168 0-3.959 3.202-7.168 7.155-7.168 3.952 0 7.155 3.21 7.155 7.168" fill="#FFF"/>
    </g>
</svg>
