<svg width="160" height="136" viewBox="0 0 160 136" xmlns="http://www.w3.org/2000/svg" xmlns:xlink="http://www.w3.org/1999/xlink">
    <defs>
        <path id="xrybqrzj1a" d="M0 0h27.729v135.81H0z"/>
        <path id="bpvzszeh1c" d="M0 0h86.037v50.335H0z"/>
    </defs>
    <g fill="none" fill-rule="evenodd">
        <g transform="translate(132.271 .19)">
            <mask id="ujhmf4rbkb" fill="#fff">
                <use xlink:href="#xrybqrzj1a"/>
            </mask>
            <path d="m10.633 85.812 16.943-74.946a6.195 6.195 0 0 0-2.907-6.71L19.442 0 0 86.002v160.8l19.192-.166a3.1 3.1 0 0 0 3.075-3.097v-5.265a3.098 3.098 0 0 0-3.1-3.098h-5.435a3.098 3.098 0 0 1-3.099-3.098V85.812z" fill="#B4B4B4" mask="url(#ujhmf4rbkb)"/>
        </g>
        <path d="M49.081 85.665 67.874 2.542A3.262 3.262 0 0 1 71.055 0h79.348a3.261 3.261 0 0 1 3.182 3.98l-18.467 81.685H49.081z" fill="#E6E6E6"/>
        <path d="m125.598 70.687 12.21-54.006a3.098 3.098 0 0 0-3.023-3.78H78.899a3.098 3.098 0 0 0-3.023 2.415l-12.21 54.006a3.098 3.098 0 0 0 3.023 3.78h55.887a3.099 3.099 0 0 0 3.022-2.415" fill="#FFF"/>
        <g transform="translate(49.081 85.665)">
            <mask id="rztepoo4td" fill="#fff">
                <use xlink:href="#bpvzszeh1c"/>
            </mask>
            <path d="M86.037 161.137H3.296A3.294 3.294 0 0 1 0 157.843V0h86.037v161.137z" fill="#D2D2D2" mask="url(#rztepoo4td)"/>
        </g>
        <path fill="#000" d="m91.786 33.55-2.305-.043-3.35 19 2.305.044zM95.14 33.613l-1.92-.036-3.35 19 1.92.037zM97.92 33.665l-1.147-.022-3.35 19.001 1.147.022zM101.195 33.727l-1.92-.036-3.35 19 1.92.037zM104.153 33.782l-1.375-.025-3.35 19 1.375.026zM111.594 33.922l-5.363-.101-3.35 19 5.363.102zM115.146 33.989l-1.92-.036-3.35 19 1.92.037z"/>
        <path fill="#8E2770" d="m120.298 29.867-7.786-.146-.207 1.338 6.4.12-1.054 5.227 1.385.025zM83.566 50.094l-1.375-.026-1.015 6.564 7.777.147.207-1.339-6.402-.12zM93.604 29.366l-7.777-.147-1.263 6.566 1.376.025 1.055-5.226 6.402.12zM116.662 50.715l-1.386-.025-.808 5.226-6.401-.12-.207 1.338 7.787.145z"/>
        <g>
            <path d="M32.198 36.926c-6.94-.92-12.545-6.498-13.493-13.433-.709-5.196 1.113-9.986 4.408-13.321.606-.614-.051-1.607-.872-1.341-8.24 2.675-14.054 10.73-13.283 20.021.764 9.22 8.222 16.747 17.438 17.589 9.136.835 17.107-4.69 19.993-12.652.294-.81-.681-1.494-1.316-.908-3.299 3.045-7.899 4.705-12.875 4.045M10.059 47.292l-2.871-.43a.412.412 0 0 1-.308-.222l-1.306-2.62a.413.413 0 0 0-.738 0l-1.305 2.62a.41.41 0 0 1-.308.223l-2.872.429a.412.412 0 0 0-.225.703L2.21 50.01c.098.094.142.23.12.363l-.479 2.861a.412.412 0 0 0 .599.433l2.56-1.36a.415.415 0 0 1 .388 0l2.56 1.36a.412.412 0 0 0 .6-.433l-.48-2.86a.411.411 0 0 1 .12-.364l2.086-2.016a.412.412 0 0 0-.226-.703M21.141 55.09l-1.838-.274a.264.264 0 0 1-.196-.143l-.836-1.675a.263.263 0 0 0-.472 0l-.836 1.675a.264.264 0 0 1-.197.143l-1.838.274a.264.264 0 0 0-.144.45l1.334 1.291a.26.26 0 0 1 .077.233l-.306 1.83a.262.262 0 0 0 .383.276l1.639-.869c.078-.04.17-.04.247 0l1.64.87c.192.101.419-.061.383-.276l-.307-1.831a.263.263 0 0 1 .077-.233l1.334-1.29a.263.263 0 0 0-.144-.45" fill="#FFC800"/>
            <path d="M123.973 97.799h-12.915a1.78 1.78 0 1 1 0-3.562h12.915a1.78 1.78 0 0 1 0 3.562M123.973 104.921h-12.915a1.78 1.78 0 1 1 0-3.561h12.915a1.78 1.78 0 0 1 0 3.561" fill="#E6E6E6"/>
        </g>
    </g>
</svg>
