<svg width="64" height="64" viewBox="0 0 64 64" xmlns="http://www.w3.org/2000/svg">
    <g stroke="#000" stroke-width="2" fill="none" fill-rule="evenodd">
        <g fill="#FFF">
            <path d="m29.687 25.35 5.63-5.631.036-4.278 12.69-6.736 5.285 5.285-6.736 12.69-4.127.034-5.68 5.68m-4.593 4.592-13.289 13.29a5 5 0 1 1-7.071-7.072l13.107-13.107"/>
            <path d="m32.796 40.367-13.421-13.42-.256.061-.255.05c-.405.082-.829.15-1.242.174-2.228.13-4.587-.944-6.07-2.452-2.513-2.557-2.983-6.396-.901-9.822l3.726 3.724.08.075.169.145c.725.59 1.744.952 3.163-.365l.248-.248c1.275-1.373.977-2.372.421-3.092l-.137-.168a4.38 4.38 0 0 0-.071-.08l-.145-.152-3.647-3.646c3.426-2.082 7.265-1.612 9.822.901 1.508 1.483 2.582 3.842 2.452 6.07a8.829 8.829 0 0 1-.175 1.242 6.602 6.602 0 0 1-.119.501l13.11 13.112"/>
        </g>
        <g transform="translate(32 32)">
            <circle fill="#FFE08C" cx="12" cy="12" r="12"/>
            <path stroke-linecap="round" stroke-linejoin="round" d="M7 12.472 10.014 16l6.683-6.89"/>
        </g>
    </g>
</svg>
