<svg width="48" height="48" viewBox="0 0 48 48" xmlns="http://www.w3.org/2000/svg">
    <g stroke="#000" stroke-width="3" fill="none" fill-rule="evenodd">
        <path d="M35 6.5c.597 0 1.17.114 1.722.343a4.457 4.457 0 0 1 1.46.975c.422.422.747.909.975 1.46.229.551.343 1.125.343 1.722s-.114 1.17-.343 1.722a4.457 4.457 0 0 1-.975 1.46 4.457 4.457 0 0 1-1.46.975A4.457 4.457 0 0 1 35 15.5c-.597 0-1.17-.114-1.722-.343a4.457 4.457 0 0 1-1.46-.975 4.457 4.457 0 0 1-.975-1.46A4.457 4.457 0 0 1 30.5 11c0-.597.114-1.17.343-1.722a4.457 4.457 0 0 1 .975-1.46 4.457 4.457 0 0 1 1.46-.975A4.457 4.457 0 0 1 35 6.5zM35 32.5c.597 0 1.17.114 1.722.343a4.457 4.457 0 0 1 1.46.975c.422.422.747.909.975 1.46.229.551.343 1.125.343 1.722s-.114 1.17-.343 1.722a4.457 4.457 0 0 1-.975 1.46 4.457 4.457 0 0 1-1.46.975A4.457 4.457 0 0 1 35 41.5c-.597 0-1.17-.114-1.722-.343a4.457 4.457 0 0 1-1.46-.975 4.457 4.457 0 0 1-.975-1.46A4.457 4.457 0 0 1 30.5 37c0-.597.114-1.17.343-1.722a4.457 4.457 0 0 1 .975-1.46 4.457 4.457 0 0 1 1.46-.975A4.457 4.457 0 0 1 35 32.5z"/>
        <path stroke-linecap="round" stroke-linejoin="round" d="M15.5 19.705 30 13M30 35l-14.5-6.76"/>
        <path d="M13 19.5c.597 0 1.17.114 1.722.343a4.457 4.457 0 0 1 1.46.975c.422.422.747.909.975 1.46.229.551.343 1.125.343 1.722s-.114 1.17-.343 1.722a4.457 4.457 0 0 1-.975 1.46 4.457 4.457 0 0 1-1.46.975A4.457 4.457 0 0 1 13 28.5c-.597 0-1.17-.114-1.722-.343a4.457 4.457 0 0 1-1.46-.975 4.457 4.457 0 0 1-.975-1.46A4.457 4.457 0 0 1 8.5 24c0-.597.114-1.17.343-1.722a4.457 4.457 0 0 1 .975-1.46 4.457 4.457 0 0 1 1.46-.975A4.457 4.457 0 0 1 13 19.5z"/>
    </g>
</svg>
