<svg xmlns="http://www.w3.org/2000/svg" width="48.5" height="48" viewBox="0 0 48.5 48">
    <path transform="translate(.5)" style="fill:none" d="M0 0h48v48H0z"/>
    <g data-name="Group 22">
        <path d="M0 48V0h48v48z" style="fill:none"/>
        <g data-name="Setting icon">
            <g style="stroke-miterlimit:10;fill:none">
                <path d="M20.986 0a2.643 2.643 0 0 1 2.652 2.634v2.217a15.915 15.915 0 0 1 4.562 2.5L30.037 6.3a2.662 2.662 0 0 1 3.623.964l2.652 4.563a2.625 2.625 0 0 1-.971 3.6l-1.481.85a15.863 15.863 0 0 1 .221 5.766l1.26.723a2.625 2.625 0 0 1 .971 3.6l-2.652 4.563a2.662 2.662 0 0 1-3.623.964l-.911-.521a15.929 15.929 0 0 1-5.487 3.291v.9a2.643 2.643 0 0 1-2.653 2.637h-5.3a2.643 2.643 0 0 1-2.652-2.634v-.9a15.929 15.929 0 0 1-5.488-3.291l-.911.521a2.662 2.662 0 0 1-3.623-.964L.356 26.366a2.625 2.625 0 0 1 .971-3.6l1.26-.723a15.863 15.863 0 0 1 .221-5.766l-1.481-.85a2.625 2.625 0 0 1-.971-3.6l2.652-4.559A2.662 2.662 0 0 1 6.631 6.3l1.836 1.056a15.915 15.915 0 0 1 4.563-2.5V2.634A2.643 2.643 0 0 1 15.682 0z" style="stroke:none" transform="translate(5.5 5)"/>
                <path d="M15.682 2a.644.644 0 0 0-.652.634v3.634l-1.338.47a13.886 13.886 0 0 0-3.989 2.19l-1.06.833L5.636 8.04a.653.653 0 0 0-.329-.089.65.65 0 0 0-.57.323l-2.652 4.562a.624.624 0 0 0 .237.858l2.762 1.586-.326 1.44a13.792 13.792 0 0 0-.192 5.037l.196 1.346-2.44 1.4a.624.624 0 0 0-.237.859l2.652 4.562a.65.65 0 0 0 .57.323c.116 0 .227-.03.33-.09l2.18-1.246 1.076.988a13.849 13.849 0 0 0 4.8 2.878l1.337.47v2.316c0 .35.292.634.652.634h5.304c.36 0 .653-.284.653-.636l.002-2.316 1.336-.469a13.849 13.849 0 0 0 4.798-2.877l1.077-.988 2.18 1.248a.653.653 0 0 0 .33.088.65.65 0 0 0 .57-.323l2.652-4.562a.608.608 0 0 0 .063-.472.633.633 0 0 0-.3-.387l-2.44-1.4.196-1.346a13.884 13.884 0 0 0-.193-5.037l-.326-1.44 2.763-1.585a.633.633 0 0 0 .3-.387.608.608 0 0 0-.063-.472L31.93 8.273a.65.65 0 0 0-.57-.323.654.654 0 0 0-.33.089l-3.006 1.722-1.06-.833a13.886 13.886 0 0 0-3.988-2.19l-1.337-.47-.001-3.634A.644.644 0 0 0 20.986 2h-5.304m0-2h5.304a2.643 2.643 0 0 1 2.653 2.634v2.217a15.915 15.915 0 0 1 4.562 2.505l1.836-1.052a2.662 2.662 0 0 1 3.623.964l2.653 4.562a2.625 2.625 0 0 1-.971 3.599l-1.481.85a15.83 15.83 0 0 1 .221 5.766l1.26.722a2.625 2.625 0 0 1 .97 3.599l-2.652 4.563a2.662 2.662 0 0 1-3.623.964l-.91-.521a15.929 15.929 0 0 1-5.487 3.29l-.001.9a2.643 2.643 0 0 1-2.653 2.634h-5.304a2.643 2.643 0 0 1-2.652-2.634v-.9a15.929 15.929 0 0 1-5.488-3.29l-.911.52a2.662 2.662 0 0 1-3.623-.963L.356 26.366a2.625 2.625 0 0 1 .97-3.599l1.26-.722a15.831 15.831 0 0 1 .222-5.767l-1.481-.85a2.625 2.625 0 0 1-.971-3.598l2.652-4.562a2.662 2.662 0 0 1 3.623-.964l1.836 1.052A15.915 15.915 0 0 1 13.03 4.85V2.634A2.643 2.643 0 0 1 15.682 0z" style="fill:#000;stroke:none" transform="translate(5.5 5)"/>
            </g>
            <g style="fill:none">
                <path d="M8.4 0A8.4 8.4 0 1 1 0 8.4 8.4 8.4 0 0 1 8.4 0z" style="stroke:none" transform="translate(15.431 15.695)"/>
                <path d="M8.403 2A6.41 6.41 0 0 0 2 8.403a6.41 6.41 0 0 0 6.403 6.403 6.41 6.41 0 0 0 6.403-6.403A6.41 6.41 0 0 0 8.403 2m0-2a8.403 8.403 0 1 1 0 16.806A8.403 8.403 0 0 1 8.403 0z" style="fill:#000;stroke:none" transform="translate(15.431 15.695)"/>
            </g>
        </g>
    </g>
</svg>
